# xmcd
#
# Track frame offsets: 
#        150
#        19462
#        34687
#        49375
#        61840
#        80237
#        93975
#        106535
#        118035
#        134297
#
# Disc length: 2022 seconds
#
# Revision: 1
# Processed by: cddbd v1.5.2PL0 Copyright (c) Steve Scherf et al.
# Submitted via: ExactAudioCopyFreeDBPlugin 1.0
#
DISCID=8207e40a
DTITLE=TERESA TENG - TOP TEN
DYEAR=1998
DGENRE=Pop
TTITLE0=我只在乎你（時の流れに身をまかせ）
TTITLE1=千言萬語（語り尽くせぬ愛）
TTITLE2=原鄉情濃（素朴な故郷）
TTITLE3=南海姑娘（南国の少女）
TTITLE4=但願人長久（愛は永遠に）
TTITLE5=假如我是真的（私にできるなら）
TTITLE6=雪中蓮（雪の中の蓮花）
TTITLE7=梅花（梅の花）
TTITLE8=何日君再來（いつまた会えるの）
TTITLE9=償還（つぐない）
EXTD=
EXTT0=
EXTT1=
EXTT2=
EXTT3=
EXTT4=
EXTT5=
EXTT6=
EXTT7=
EXTT8=
EXTT9=
PLAYORDER=
